# xmcd
#
# Track frame offsets:
#	150
#	10758
#	22481
#	35790
#	53264
#	64951
#	78208
#	91816
#	108213
#	117571
#	127395
#	143976
#
# Disc length: 2089 seconds
#
# Revision: 0
# Processed by: cddbd v1.5.2PL0 Copyright (c) Steve Scherf et al.
# Submitted via: audiograbber 1.83.01
#
DISCID=a608270c
DTITLE=Kiwi Country Girls - The Great Kiwi Country Girls vol 2
DYEAR=1900
DGENRE=Country
TTITLE0=Suzanne Prentice - Love Is Like A Butterfly
TTITLE1=Maria Dallas - Ambush
TTITLE2=Tracey Gardyne - River Road
TTITLE3=Celine Toner - Angel Of the Morning
TTITLE4=Dawn Garmson - NZ Needs A Country Hall Of Fame
TTITLE5=Lynne Toner - Sad Movies
TTITLE6=Suzanne Prentice - Talking In Your Sleep
TTITLE7=Kitten - Send Me The Pillow You Dream On
TTITLE8=Maria Dallas - My Whole World Is Falling Down
TTITLE9=Patricia Lennon - Silver Threads and Golden Needles
TTITLE10=Tracey Ryder - I Honestly Love You
TTITLE11=Nola Hewitt and The Tumbleweeds - Mother Pal and Sweetheart
EXTD=
EXTT0=
EXTT1=
EXTT2=
EXTT3=
EXTT4=
EXTT5=
EXTT6=
EXTT7=
EXTT8=
EXTT9=
EXTT10=
EXTT11=
PLAYORDER=
